Coordinates
version=1
nRows=60
nColumns=12
inDegrees=yes

Units are S.I. units (second, meters, Newtons, ...)
Angles are in degrees

endheader
time	SC_y	SC_z	SC_x	AC_y	AC_z	AC_x	GH_y	GH_z	GH_yy	EL_x	PS_y
       0.0              -44.17          30.31          59.73          33.54         -13.46          1.928         -165.5          25.88          148.0          53.26          44.26
   0.04503              -44.17          30.31          59.73          33.54         -13.46          1.926         -165.5          25.88          148.0          53.27          44.26
   0.09005              -44.17          30.31          59.73          33.54         -13.46          1.923         -165.5          25.89          148.0          53.28          44.26
    0.1351              -44.17          30.31          59.74          33.54         -13.45          1.919         -165.4          25.89          148.0          53.29          44.26
    0.1801              -44.17          30.31          59.74          33.54         -13.45          1.916         -165.4           25.9          148.0           53.3          44.26
    0.2251              -44.17          30.31          59.74          33.54         -13.45          1.912         -165.4           25.9          148.0          53.31          44.26
    0.2702              -44.17          30.31          59.75          33.54         -13.44          1.909         -165.4          25.91          148.0          53.32          44.25
    0.3152              -44.17          30.31          59.75          33.54         -13.44          1.905         -165.4          25.92          148.0          53.33          44.25
    0.3602              -44.16          30.31          59.75          33.54         -13.44            1.9         -165.4          25.92          148.0          53.34          44.25
    0.4052              -44.16          30.31          59.76          33.54         -13.43          1.895         -165.4          25.93          148.1          53.36          44.25
    0.4503              -44.16          30.31          59.76          33.54         -13.43           1.89         -165.4          25.94          148.1          53.37          44.25
    0.4953              -44.16          30.31          59.77          33.54         -13.42          1.885         -165.4          25.95          148.1          53.39          44.25
    0.5403              -44.16          30.31          59.77          33.54         -13.42          1.879         -165.4          25.96          148.1           53.4          44.24
    0.5854              -44.16          30.31          59.78          33.54         -13.41          1.873         -165.3          25.97          148.1          53.42          44.24
    0.6304              -44.15          30.31          59.79          33.54         -13.41          1.866         -165.3          25.98          148.1          53.44          44.24
    0.6754              -44.15          30.31          59.79          33.54          -13.4          1.858         -165.3          25.99          148.1          53.46          44.24
    0.7204              -44.15          30.31           59.8          33.54         -13.39           1.85         -165.3           26.0          148.1          53.48          44.23
    0.7655              -44.15          30.31          59.81          33.54         -13.39          1.841         -165.3          26.01          148.1          53.51          44.23
    0.8105              -44.15           30.3          59.82          33.54         -13.38          1.832         -165.2          26.03          148.1          53.54          44.23
    0.8555              -44.14           30.3          59.83          33.54         -13.37          1.821         -165.2          26.05          148.2          53.57          44.22
    0.9005              -44.14           30.3          59.84          33.54         -13.36           1.81         -165.2          26.06          148.2           53.6          44.22
    0.9456              -44.14           30.3          59.85          33.54         -13.35          1.797         -165.2          26.08          148.2          53.64          44.22
    0.9906              -44.13           30.3          59.87          33.54         -13.33          1.783         -165.1          26.11          148.2          53.68          44.21
     1.036              -44.13           30.3          59.88          33.54         -13.32          1.767         -165.1          26.13          148.2          53.72          44.21
     1.081              -44.12           30.3           59.9          33.54         -13.31           1.75         -165.1          26.16          148.3          53.77           44.2
     1.126              -44.12          30.29          59.92          33.54         -13.29           1.73         -165.0          26.19          148.3          53.83          44.19
     1.171              -44.11          30.29          59.94          33.54         -13.27          1.709         -165.0          26.22          148.3          53.89          44.19
     1.216               -44.1          30.29          59.96          33.54         -13.25          1.684         -164.9          26.26          148.4          53.96          44.18
     1.261               -44.1          30.29          59.99          33.54         -13.23          1.657         -164.9           26.3          148.4          54.04          44.17
     1.306              -44.09          30.28          60.02          33.55          -13.2          1.625         -164.8          26.35          148.4          54.13          44.16
     1.351              -44.08          30.28          60.05          33.55         -13.17           1.59         -164.7           26.4          148.5          54.23          44.15
     1.396              -44.06          30.28          60.09          33.55         -13.13          1.548         -164.6          26.47          148.6          54.35          44.13
     1.441              -44.05          30.27          60.14          33.55         -13.09          1.501         -164.5          26.54          148.6          54.48          44.12
     1.486              -44.04          30.27          60.19          33.55         -13.04          1.446         -164.4          26.63          148.7          54.64           44.1
     1.531              -44.02          30.26          60.26          33.55         -12.99          1.382         -164.2          26.73          148.8          54.82          44.08
     1.576               -44.0          30.25          60.33          33.55         -12.92          1.306         -164.1          26.84          148.9          55.04          44.05
     1.621              -43.97          30.24          60.42          33.55         -12.84          1.216         -163.8          26.98          149.0           55.3          44.02
     1.666              -43.94          30.23          60.52          33.56         -12.75          1.107         -163.6          27.15          149.2          55.61          43.99
     1.711               -43.9          30.22          60.65          33.56         -12.64         0.9765         -163.3          27.35          149.4          55.98          43.95
     1.756              -43.86           30.2           60.8          33.56          -12.5         0.8167         -162.9           27.6          149.6          56.44          43.89
     1.801               -43.8          30.19          60.99          33.57         -12.33         0.6194         -162.5          27.91          149.9           57.0          43.83
     1.846              -43.73          30.16          61.23          33.57         -12.12         0.3734         -161.9          28.29          150.3           57.7          43.75
     1.891              -43.64          30.13          61.53          33.58         -11.85         0.0635         -161.2          28.77          150.7          58.59          43.64
     1.936              -43.53          30.09          61.91          33.59         -11.51        -0.3305         -160.3          29.38          151.3          59.71          43.51
     1.981              -43.39          30.04           62.4           33.6         -11.07        -0.8347         -159.2          30.16          152.0          61.15          43.35
     2.026               -43.2          29.98          63.02          33.62         -10.52         -1.482         -157.7          31.16          152.9           63.0          43.13
     2.071              -42.97           29.9          63.82          33.64         -9.802         -2.308         -155.9          32.45          154.1          65.36          42.86
     2.116              -42.67           29.8          64.82          33.66         -8.904         -3.348         -153.5          34.06          155.7          68.33          42.51
     2.161              -42.31          29.67          66.05          33.69          -7.81         -4.614         -150.6          36.02          157.5          71.94          42.09
     2.206              -41.89          29.53          67.47          33.72         -6.542         -6.082         -147.3          38.29          159.6          76.14          41.61
     2.251              -41.44          29.37           69.0          33.76          -5.17         -7.672         -143.7          40.76          161.9          80.68          41.08
     2.296              -40.98          29.21          70.54           33.8         -3.797         -9.261         -140.1          43.22          164.2          85.21          40.55
     2.341              -40.57          29.07          71.96          33.83         -2.529         -10.73         -136.8           45.5          166.4          89.41          40.07
     2.386               -40.2          28.95          73.18          33.86         -1.435          -12.0         -133.9          47.46          168.2          93.02          39.65
     2.431              -39.91          28.84          74.19          33.89        -0.5377         -13.04         -131.5          49.07          169.7          95.99           39.3
     2.477              -39.67          28.76          74.98          33.91         0.1761         -13.86         -129.7          50.35          170.9          98.35          39.03
     2.522              -39.49           28.7          75.61          33.92         0.7349         -14.51         -128.2          51.35          171.8          100.2          38.82
     2.567              -39.34          28.65           76.1          33.93           1.17         -15.01         -127.0          52.14          172.6          101.6          38.65
     2.612              -39.23          28.61          76.48          33.94          1.511         -15.41         -126.2          52.75          173.1          102.8          38.52
     2.657              -39.14          28.58          76.78          33.95          1.778         -15.72         -125.4          53.23          173.6          103.6          38.42
